<?xml version="1.0" encoding="UTF-8"?>
<svg width="512px" height="512px" viewBox="0 0 512 512" version="1.1" xmlns="http://www.w3.org/2000/svg" xmlns:xlink="http://www.w3.org/1999/xlink">
    <title>TTS Importer</title>
    <g id="512x512-(Android)" stroke="none" stroke-width="1" fill="none" fill-rule="evenodd">
        <g id="favicon" transform="translate(24, 24)" fill-rule="nonzero">
            <path d="M167,8 C160.931278,8 156,12.4192889 156,17.8245267 L156,316.175474 C156,321.601689 160.945408,326 167,326 C172.87797,326 177.795118,321.615673 178,316.175474 L178,17.8245267 C178,12.3983112 173.061657,8 167,8 Z" id="1" fill="#50E6FF"></path>
            <path d="M118.5,62 C111.607024,62 106,67.202624 106,73.5800339 L106,260.419966 C106,266.797376 111.607024,272 118.5,272 C125.392976,272 131,266.797376 131,260.419966 L131,73.6010123 C131,67.202624 125.399889,62.0209783 118.5,62.0209783 L118.5,62 Z" id="2" fill="#63C6F9"></path>
            <path d="M68.5,116 C61.6070243,116 56,121.213162 56,127.60349 L56,206.39651 C56,212.786838 61.6001107,218 68.5,218 C75.3929757,218 80.7787611,213.067116 81,206.39651 L81,127.624511 C81,121.213162 75.3929757,116.021021 68.5,116.021021 L68.5,116 Z" id="3" fill="#709AF0"></path>
            <path d="M19.5,139 C12.6070243,139 7,144.264151 7,150.716981 L7,184.283019 C7,190.757075 12.6070243,196 19.5,196 C26.1717367,196 31.7787611,190.792452 32,184.283019 L32,150.716981 C32,144.264151 26.3998893,139 19.5,139 Z" id="4" fill="#773ADC"></path>
            <path d="M217.5,62 C210.607025,62 205,67.202624 205,73.5800339 L205,260.419966 C205,266.797376 210.607025,272 217.5,272 C224.392975,272 230,266.797376 230,260.419966 L230,73.6010123 C230,67.202624 224.399889,62.0209783 217.5,62.0209783 L217.5,62 Z" id="5" fill="#63C6F9"></path>
            <path d="M266.5,116 C259.607025,116 254,121.213162 254,127.60349 L254,206.508621 C254.22124,213.046095 259.586283,218 266.5,218 C273.413717,218 279,212.786838 279,206.39651 L279,127.624511 C279,121.213162 273.392975,116.021021 266.5,116.021021 L266.5,116 Z" id="6" fill="#709AF0"></path>
            <path d="M316.489621,139 C309.590922,139 304,144.264151 304,150.716981 L304,184.283019 C304,190.757075 309.60476,196 316.489621,196 C323.367561,196 329,190.735849 329,184.283019 L329,150.716981 C329,144.264151 323.38832,139 316.489621,139 Z" id="7" fill="#773ADC"></path>
            <path d="M7.29360053,58.4837688 C5.50614612,58.4856844 3.79222153,57.7723598 2.53389882,56.5028106 C1.26703263,55.2426681 0.554214841,53.5298191 0.553022962,51.7429108 L0.553022962,6.71985855 C0.572244992,3.00838347 3.582238,0.00764249946 7.29360053,0 L49.5289535,0 C51.2998426,0 53.0217347,0.706985118 54.2676566,1.9809583 C55.5328717,3.24184034 56.2440319,4.95459777 56.2440319,6.7408581 C56.2440319,8.52711843 55.5328717,10.2398759 54.2676566,11.5007579 C53.0075665,12.7676768 51.2947889,13.4805243 49.5079548,13.4817162 L14.0271785,13.4817162 L14.0271785,51.7289111 C14.0264377,53.5179732 13.3225377,55.2350578 12.0673013,56.5098104 C10.8051527,57.7753906 9.0948941,58.49222 7.30759964,58.5047685 L7.28660096,58.4837688 L7.29360053,58.4837688 Z M335.972002,6.7268584 C335.973917,4.93932961 335.260623,3.22533369 333.991126,1.96695859 C332.723298,0.71420873 331.013734,0.0102413079 329.231425,0.00698455191 L286.996072,0.00698455191 C285.208617,0.00508425424 283.494692,0.718409027 282.236369,1.98795815 C280.971155,3.24884019 280.259994,4.96159762 280.259994,6.74785795 C280.259994,8.53411828 280.971155,10.2468757 282.236369,11.5077578 C283.496898,12.7740228 285.209392,13.486752 286.996072,13.488716 L322.399852,13.488716 L322.399852,51.7359109 C322.396126,53.5304071 323.107306,55.2524782 324.376158,56.5213813 C325.645008,57.7902844 327.367007,58.5014955 329.161429,58.4978262 C330.95585,58.5014955 332.67785,57.7902844 333.9467,56.5213813 C335.21555,55.2524782 335.926731,53.5304071 335.923005,51.7359109 L336,51.7709102 L335.979001,51.7709102 L335.972002,6.7268584 Z M55.2335961,326.683123 C54.1926566,324.170005 51.7380522,322.533534 49.0179856,322.539211 L13.5232102,322.539211 L13.5232102,284.278015 C13.5269369,282.48352 12.8157553,280.761449 11.5469051,279.492545 C10.2780548,278.223642 8.55605527,277.512431 6.76163386,277.516114 C4.96721246,277.512431 3.24521293,278.223642 1.97636265,279.492545 C0.707512369,280.761449 -0.00366912694,282.48352 1.4236674e-05,284.278015 L1.4236674e-05,329.280068 C0.0308032369,332.988786 3.04594363,335.978939 6.7546343,335.978939 L48.9899874,335.978939 C50.7774418,335.980843 52.4913663,335.267519 53.749689,333.997969 C55.0165552,332.737827 55.729373,331.024978 55.7305649,329.23807 L55.7515635,329.259068 L55.7587349,329.259068 C55.7623522,328.373476 55.5836482,327.496599 55.2335961,326.683123 Z M335.993058,284.278015 C335.996727,282.48352 335.285546,280.761449 334.016696,279.492545 C332.747846,278.223642 331.025846,277.512431 329.231425,277.5161 C327.437002,277.512431 325.715004,278.223642 324.446154,279.492545 C323.177302,280.761449 322.466121,282.48352 322.469848,284.278015 L322.469848,322.539211 L287.066067,322.539211 C286.18051,322.535421 285.30367,322.714133 284.490228,323.0642 C282.838977,323.744025 281.526648,325.053803 280.843569,326.703768 C280.16049,328.353734 280.16297,330.207881 280.850456,331.856014 C281.891396,334.369133 284.346,336.005604 287.066067,335.999986 L329.30142,335.999986 C331.071299,335.982512 332.762351,335.265295 334.005125,334.004969 C335.259624,332.752572 335.964707,331.052749 335.965002,329.280068 L335.986001,329.259068 L335.993058,284.278015 Z" id="11" fill="#773ADC"></path>
        </g>
        <g id="编组" transform="translate(190, 164)">
            <path d="M348,0 L348,348 L0,348 L0,0 L348,0 Z M182.5985,337.241 L182.439,337.27 L181.4095,337.7775 L181.1195,337.8355 L180.9165,337.7775 L179.887,337.27 C179.742,337.212 179.6115,337.2555 179.539,337.3425 L179.481,337.4875 L179.2345,343.6935 L179.307,343.9835 L179.452,344.172 L180.96,345.245 L181.1775,345.303 L181.3515,345.245 L182.8595,344.172 L183.0335,343.94 L183.0915,343.6935 L182.845,337.502 C182.816,337.357 182.7145,337.2555 182.5985,337.241 M186.441,335.6025 L186.2525,335.6315 L183.57,336.98 L183.425,337.125 L183.3815,337.2845 L183.6425,343.5195 L183.715,343.6935 L183.831,343.795 L186.7455,345.1435 C186.9195,345.2015 187.079,345.1435 187.166,345.0275 L187.224,344.8245 L186.731,335.9215 C186.6875,335.7475 186.586,335.6315 186.441,335.6025 M176.0735,335.6315 C175.938192,335.570029 175.778538,335.605508 175.682,335.7185 L175.595,335.9215 L175.102,344.8245 C175.102,344.9985 175.2035,345.1145 175.3485,345.1725 L175.566,345.1435 L178.4805,343.795 L178.6255,343.679 L178.6835,343.5195 L178.93,337.2845 L178.8865,337.1105 L178.7415,336.9655 L176.0735,335.6315 Z" id="22"></path>
            <path d="M174,28 L174,122.575 C174,134.628615 183.737807,144.4 195.75,144.4 L290,144.4 L290,289.9 C290,305.971486 277.016258,319 261,319 L87,319 C70.9837423,319 58,305.971486 58,289.9 L58,275.35 L107.503,275.35 L91.2485,291.66055 C87.5834016,295.335688 86.1506359,300.693704 87.4899119,305.716286 C88.8291878,310.738868 92.7370376,314.662966 97.7414119,316.010411 C102.745786,317.357856 108.086402,315.923938 111.7515,312.2488 L152.772,271.08685 C158.432538,265.405077 158.432538,256.194923 152.772,250.51315 L111.7515,209.36575 C108.11092,205.583382 102.719771,204.066457 97.6501438,205.398006 C92.580517,206.729556 88.6213651,210.70236 87.2943912,215.789468 C85.9674173,220.876577 87.4791295,226.286316 91.2485,229.93945 L107.503,246.25 L58,246.25 L58,57.1 C58,41.0285138 70.9837423,28 87,28 L174,28 Z M58,246.25 L58,275.35 L43.5,275.35 C35.4918711,275.35 29,268.835743 29,260.8 C29,252.764257 35.4918711,246.25 43.5,246.25 L58,246.25 Z M203,28.62565 C208.49374,29.7948206 213.530987,32.5394779 217.5,36.5263 L281.503,100.75 C285.476122,104.732699 288.211347,109.787316 289.3765,115.3 L203,115.3 L203,28.62565 Z" id="33" fill="#846AFF" fill-rule="nonzero"></path>
        </g>
    </g>
</svg>