<?xml version="1.0" encoding="UTF-8"?>
<svg version="1.1" viewBox="0 0 512 512" xmlns="http://www.w3.org/2000/svg">
  <g fill="none" fill-rule="evenodd">
    <g transform="translate(255.59 255.91) rotate(45) translate(-119.5 -248.15)" fill="#000">
      <g transform="translate(86.586 362.3)">
        <path
          d="m31.5 74.949c17.397 0 31.5 13.219 31.5 29.525 0 16.306-14.103 29.525-31.5 29.525s-31.5-13.219-31.5-29.525c0-16.306 14.103-29.525 31.5-29.525zm0 15.898c-8.0294 0-14.538 6.1011-14.538 13.627 0 7.526 6.5091 13.627 14.538 13.627s14.538-6.1011 14.538-13.627c0-7.526-6.5091-13.627-14.538-13.627z" />
        <path
          d="m50.885 68.136v13.627h-38.769v-13.627h38.769zm-38.769-22.712h38.769v11.356h-38.769v-11.356zm0-22.712h38.769v11.356h-38.769v-11.356zm0-22.712h38.769v11.356h-38.769v-11.356z" />
      </g>
      <path
        d="m118.79-3.5621e-14 33 70.473v270.53h-22v-260.3l-11-47.74-11 47.74v260.3h-22v-270.53l33-70.473z" />
      <g transform="translate(-0 337.52)">
        <rect x="39.02" y="3.36" width="160.96" height="22.4" />
        <ellipse cx="223.76" cy="14" rx="15.242" ry="14" />
        <path
          d="m15.242 28c8.4181 0 15.242-6.268 15.242-14s-6.8242-14-15.242-14c-8.4181 0-15.242 6.268-15.242 14 0 9.8995 4.4644 14 15.242 14z" />
      </g>
    </g>
  </g>
</svg>