<svg fill="none" height="418" viewBox="0 0 555 418" width="555" xmlns="http://www.w3.org/2000/svg" xmlns:xlink="http://www.w3.org/1999/xlink"><clipPath id="a"><path d="m0 0h555v418h-555z"/></clipPath><mask id="b" height="418" maskUnits="userSpaceOnUse" width="555" x="0" y="0"><path clip-rule="evenodd" d="m555 0h-555v418h555zm-105 97h49v50h46v53 2 6h-4.803c.511-.883.803-1.907.803-3 0-3.314-2.686-6-6-6-2.221 0-4.16 1.207-5.197 3h-51.803v-54h-28zm39.5 22.25c0 9.527-7.723 17.25-17.25 17.25s-17.25-7.723-17.25-17.25 7.723-17.25 17.25-17.25 17.25 7.723 17.25 17.25zm-17.5 6.75c3.866 0 7-3.134 7-7s-3.134-7-7-7-7 3.134-7 7 3.134 7 7 7z" fill="#d9d9d9" fill-rule="evenodd"/></mask><g clip-path="url(#a)"><g mask="url(#b)"><path d="m29.8435 174.495s-9.2311 20.468-10.6855 30.53c-2.4516 16.962-.193 33.381 10.6855 38.163 27.7822 12.212 44.5736-57.702 44.5736-57.702l-3.9574 33.888s-2.2123 20.794-2.7011 51.392c-.4887 30.599.6538 45.68 0 63.966-.6537 18.286-1.6833 26.372-5.6253 39.333-3.9421 12.962-10.7029 26.26-26.6945 23.567-6.7789-1.142-11.1392-6.909-12.7932-14.308-2.2478-10.056-.1135-23.225 2.02-32.825 3.7033-16.665 14.6449-41.915 29.7948-65.201s29.1215-31.703 46.6276-52.688c17.507-20.985 16.215-21.764 19.912-28.61 3.697-6.847 13.5-29 13.5-29s-32.152 63.152 4 69c15.304 2.475 26.889-12.267 31.5-22 4.5-9.5 6.5-44 6.5-44s-9.5 56 12.5 65.5c15.313 6.612 31.758-5.5 45-29.5s21.49-46.077 29.5-44c14 3.63-3 69.409 4 74.5 10.5 7.636 33-69.108 56-65.5s-5 53.27 16 65c31.33 17.5 62.672-65 68.5-75.5 7.771-14 26.059-67.554 28-102.5 1.5-27-4-51-18-51-16 0-19.773 31.5-21 45-2.5 27.5-8 269.5-3.5 310 1.69 15.213 4.282 31.355 19.5 33 18.5 2 25.215-34.707 21-60-2.383-14.299-9.025-34.551-15.5-47.5-9.5-19-24.5-31-24.5-31s43.5-8 72-64l4-31s-15.5 70 14 79c28.5 8.695 53-48 53-48s-39.116-42.054-64.5-69c-6 0-12-5.5-12-11.5s4.196-12 12-12 12 6.5 12 12-5.5 11.5-11.5 11.5" id="main-stroke" stroke-linecap="round" stroke-linejoin="round" stroke-width="12"/></g></g></svg>