<?xml version="1.0" encoding="UTF-8"?>
<svg width="512px" height="512px" viewBox="0 0 512 512" version="1.1" xmlns="http://www.w3.org/2000/svg" xmlns:xlink="http://www.w3.org/1999/xlink">
    <title>512x512@1x</title>
    <g id="512x512" stroke="none" stroke-width="1" fill="none" fill-rule="evenodd">
        <g id="obsidian" transform="translate(37, 35)" fill="#9781F9" fill-rule="nonzero">
            <path d="M306.027412,340.224609 C317.814886,322.442992 329.151769,304.365074 340.027174,286.008213 C343.02397,280.780902 342.575795,274.255783 338.892629,269.490016 C329.450284,256.917832 311.370755,231.406393 301.525829,207.78537 C291.406417,183.540326 289.88759,145.842128 289.814394,127.451868 C289.8308,120.475747 287.525299,113.693689 283.263309,108.180637 L224.742729,33.5917969 C224.522625,36.9434164 224.057801,40.2743391 223.351996,43.5577762 C221.41229,52.7896135 217.734167,61.9847436 213.543669,71.088106 C211.091587,76.4106364 208.236924,82.1002379 205.382262,87.8632535 L199.709535,99.3525778 C190.26719,118.954173 181.465314,140.225941 178.994933,165.241834 C176.725843,188.367311 179.836693,215.347034 193.908715,247.484105 C196.251002,247.685994 198.611588,247.942944 200.972174,248.291662 C223.514284,251.338943 244.672884,260.941595 261.835042,275.913759 C278.597034,290.413066 293.748704,311.189288 306.027412,340.151195 L306.027412,340.224609 Z M100.790932,414.716378 C102.130352,414.936803 103.469771,415.083752 104.827539,415.083752 C119.139145,415.524601 143.267046,416.773671 162.807893,420.410672 C178.770839,423.349662 210.38481,432.166632 236.384228,439.789638 C256.255343,445.594143 276.713601,429.723597 279.594271,409.22414 C281.685967,394.272028 285.649181,377.354466 292.896725,361.832925 L292.713243,361.924768 C280.41994,327.575321 264.787263,305.385946 248.38396,291.223687 C234.022493,278.690278 216.296975,270.660818 197.412623,268.134246 C169.156375,264.16661 143.248698,271.624297 126.955484,276.400156 C136.716734,317.141906 133.707627,365.102551 100.80928,414.734747 L100.790932,414.716378 Z M52.4028472,182.601563 C51.9804303,184.440217 51.3743539,186.223712 50.6029839,187.933661 L2.57602047,295.145622 C-2.35679892,306.159276 -0.078635853,319.0712 8.32456332,327.726584 L83.9188202,405.685547 C122.542416,348.668862 116.904069,294.998529 99.2727557,253.0772 C85.9023429,221.268473 65.6263324,196.428246 52.4395791,182.638336 L52.4028472,182.601563 Z M121.8698,257.537109 C133.161056,254.173075 151.355583,248.989153 172.267356,247.720746 C159.727636,216.010585 156.698275,188.28947 159.121764,163.583118 C161.949168,135.053164 171.973599,111.247565 181.796074,90.9714439 C183.870727,86.6515089 185.890302,82.6256971 187.818077,78.7653296 C190.553682,73.305667 193.105689,68.1585104 195.510819,62.9562056 C199.494888,54.3163355 202.46917,46.6875141 203.956311,39.6101737 C205.425092,32.6247468 205.425092,26.374628 203.699274,20.4370152 C201.955096,14.462637 198.246424,8.02869115 191.214633,0.951350769 C181.650643,-1.54456444 171.474178,0.942285999 164.13398,7.56912359 L73.2531416,89.4089142 C68.1826198,93.9729703 64.853296,100.159083 63.834582,106.909247 L55.9949622,158.932294 C68.3327245,169.778089 98.7364958,201.506633 117.224779,245.533205 C118.877158,249.393572 120.437738,253.437767 121.8698,257.537109 L121.8698,257.537109 Z" id="11"></path>
        </g>
        <g id="编组" transform="translate(201, -15)">
            <path d="M311,0 L311,311 L0,311 L0,0 L311,0 Z M163.184292,301.384917 L163.04175,301.410833 L162.121708,301.864375 L161.862542,301.916208 L161.681125,301.864375 L160.761083,301.410833 C160.6315,301.359 160.514875,301.397875 160.450083,301.475625 L160.39825,301.605208 L160.177958,307.151375 L160.24275,307.410542 L160.372333,307.579 L161.72,308.537917 L161.914375,308.58975 L162.069875,308.537917 L163.417542,307.579 L163.573042,307.371667 L163.624875,307.151375 L163.404583,301.618167 C163.378667,301.488583 163.287958,301.397875 163.184292,301.384917 M166.61825,299.920625 L166.449792,299.946542 L164.0525,301.151667 L163.922917,301.28125 L163.884042,301.423792 L164.117292,306.995875 L164.182083,307.151375 L164.28575,307.242083 L166.890375,308.447208 C167.045875,308.499042 167.188417,308.447208 167.266167,308.343542 L167.318,308.162125 L166.877417,300.205708 C166.838542,300.050208 166.747833,299.946542 166.61825,299.920625 M157.353042,299.946542 C157.23212,299.891607 157.089441,299.923313 157.003167,300.024292 L156.925417,300.205708 L156.484833,308.162125 C156.484833,308.317625 156.575542,308.421292 156.705125,308.473125 L156.8995,308.447208 L159.504125,307.242083 L159.633708,307.138417 L159.685542,306.995875 L159.905833,301.423792 L159.866958,301.268292 L159.737375,301.138708 L157.353042,299.946542 Z" id="形状"></path>
            <path d="M130.817045,58.6897757 L128.194681,99.425797 L127.93632,104.828762 L126.773696,104.958329 C69.4433969,111.695839 26,160.72418 26,220.765759 C26,226.686993 26.4392136,232.556401 27.3176409,238.348068 C30.9217765,262.253271 33.6345666,264.57253 50.2084228,244.800529 C54.3160098,239.991714 58.8092793,235.528317 63.6431931,231.455077 C80.9911138,217.072013 102.565844,208.796799 125.055595,207.899706 L127.975074,207.834922 L128.763075,223.758768 L130.907471,254.142346 C131.940915,264.559573 142.869584,271.672828 152.919826,265.984815 C157.466979,263.419379 161.89787,260.672548 166.354596,257.95163 C189.439149,243.465984 211.051044,226.816561 232.107463,209.5193 C244.508789,199.1539 255.35995,189.332684 264.609273,180.392526 C268.872229,176.207496 273.135185,172.022466 277.256042,167.694911 C283.22418,161.423845 283.818411,151.045488 277.566075,144.476416 C263.175369,129.381802 242.842361,110.477905 217.535904,90.4208559 C197.022043,74.3285727 175.810608,59.2987429 153.333203,46.0958149 C142.520797,39.9154453 131.798817,48.3891596 130.817045,58.6897757" id="路径" stroke="#000000" stroke-width="16" fill="#FFFFFF" fill-rule="nonzero"></path>
        </g>
    </g>
</svg>