<?xml version="1.0" encoding="UTF-8"?>
<svg version="1.1" viewBox="0 0 350 500" xmlns="http://www.w3.org/2000/svg" xmlns:xlink="http://www.w3.org/1999/xlink">
<defs>
<path id="a" d="m326 0v483h-326v-483h326zm-74.771 145.07c-3.3984 3.2966-6.0364 5.2962-7.9141 5.9988-1.8777 0.70261-5.2023 1.1242-9.9739 1.2648l69.966 77.554 3.199-4.701c1.9249-1.9249 3.7567-3.0426 5.4953-3.3531 2.6079-0.4657 5.1227-0.65198 6.0542 0.4657 0.93141 1.1177 4.0982-3.5394 3.5076-4.4859-0.39375-0.63103-23.838-24.879-70.334-72.743z"/>
</defs>
<g fill="none" fill-rule="evenodd">
<mask id="b" fill="white">
<use xlink:href="#a"/>
</mask>
<path d="m28.399 198.38s-15.339 28.192-14.354 51.412c0.73339 17.287 4.7786 27.112 18.041 30.379 13.694 3.3727 22.344-2.9511 32.041-18.128 6.4644-10.118 12.086-27.45 16.864-51.996-2.4626 21.518-4.1694 38.85-5.1202 51.996-1.4263 19.72-1.5236 22.133-2.6738 52.342-1.1502 30.209 1.4073 25.753 0.70363 63.983-0.70363 38.23-5.629 52.068-12.102 68.58s-19.716 17.905-26.034 16.699c-6.3184-1.2053-20.968-6.4734-16.742-39.568 4.2265-33.094 20.949-64.327 30.588-82.267 9.6392-17.94 24.059-35.406 45.786-56.496 9.3914-9.1162 26.471-26.269 43.577-55.323 6.1848-10.504 15.32-29.239 27.404-56.204 11.716-25.978 19.576-53.655 23.58-83.032 6.0062-44.065 2.1837-83.76-21.85-83.76-4.0939 0-11.846 5.193-16.995 21.001-4.3172 13.254-6.2389 34.304-8.1332 62.759-3.8183 57.358-4.3834 289.65-2.4278 323.14 1.9556 33.497 7.6823 55.84 22.88 55.84 22.278 0 31.139-33.96 24.827-78.632-4.2082-29.781-18.775-58.359-43.701-85.732 25.357-12.816 42.837-23.863 52.441-33.14 9.604-9.2768 20.211-23.763 31.822-43.458l3.8672-38.003c-3.4317 36.601-4.16 60.356-2.185 71.265 2.9625 16.363 15.011 21.786 18.937 23.274 3.926 1.4888 15.783 3.1249 29.862-9.4365 9.3859-8.3742 20.675-24.074 33.868-47.1-47.286-56.314-73.155-84.471-77.606-84.471-6.6765 0-11.867-5.3912-11.867-12.258s5.1906-12.289 11.867-12.289 12.605 5.6169 12.605 12.289-5.7326 12.258-12.507 12.258" class="main-stroke" mask="url(#b)" stroke="#000" stroke-linecap="round" stroke-linejoin="round" stroke-width="16"/>
</g>
</svg>
